<svg id="Layer_1" data-name="Layer 1" xmlns="http://www.w3.org/2000/svg" viewBox="0 0 256 256"><defs><style>.cls-1{opacity:0.3;}.cls-2{fill:#910000;}.cls-3{fill:#bf0000;}.cls-4{fill:#f33;}.cls-10,.cls-5{fill:#d80000;}.cls-6{fill:#ef0a0a;}.cls-7{fill:#b7b7b7;}.cls-8{fill:#fff;}.cls-9{fill:#191919;}.cls-10{stroke:#890300;stroke-width:2px;}.cls-10,.cls-11,.cls-12{stroke-miterlimit:10;}.cls-11{fill:none;stroke:#9e0000;}.cls-11,.cls-12{stroke-width:4px;}.cls-12{fill:#4f0000;stroke:#770101;}.cls-13{fill:#efefef;}.cls-14{fill:#ea2458;}.cls-15{fill:#9e0000;}</style></defs><ellipse class="cls-1" cx="125.9" cy="194.03" rx="107.89" ry="20.08"/><path class="cls-2" d="M41.06,119s13.78,5.66,24.35,1.18c1.48-.63-.54-4.73-1.77-5.49-2.89-1.81-8.82-4.1-12-6.13C48.87,106.76,39.14,115.12,41.06,119Z"/><path class="cls-3" d="M64.7,119.69c-14.77,3.7-22.56-1.11-23.22-1.74a2.66,2.66,0,0,1,.14-1.91c1-2.56,4.28-5.59,6.75-6.82,1.11-.55,2-.73,2.42-.47,2.93,1.86,11,6.56,12.66,7C64.51,116.18,65.41,119.45,64.7,119.69Z"/><path class="cls-4" d="M59.44,117.3c.05,1.47-3.73,3.38-8.13,2.62s-6.92-3.72-6.15-5,4-1,7.55-.39S59.42,115.78,59.44,117.3Z"/><path class="cls-2" d="M55.81,122.82s13.76,5.24,24.3,1.94c1.48-.47-.55-4-1.77-4.63-2.9-1.62-8.81-3.75-12-5.57C63.58,113,53.89,119.56,55.81,122.82Z"/><path class="cls-3" d="M79.4,124.36c-14.73,2.49-22.5-1.81-23.17-2.36a1.84,1.84,0,0,1,.14-1.59c1-2.08,4.26-4.47,6.72-5.39a3.52,3.52,0,0,1,2.42-.3c2.93,1.67,11,5.89,12.64,6.28C79.2,121.44,80.11,124.19,79.4,124.36Z"/><path class="cls-4" d="M74.15,122.17c0,1.23-3.71,2.66-8.1,1.86s-6.92-3.36-6.15-4.44,4-.65,7.53,0S74.12,120.91,74.15,122.17Z"/><path class="cls-2" d="M34.72,82.46a32.87,32.87,0,0,1,2.37-3.07c.61-.49.49-1.7,1.26-2.63a4.45,4.45,0,0,0,1-2.23c.25-1,.07-1.73.89-2.43s1.17-1,.87-2.19,1-1.27,1.16-2.36-.32-1.7.39-2.55,0-1.82.4-2.57a3.67,3.67,0,0,0,.32-2.3,4.09,4.09,0,0,1,.47-2.81c.5-.53.15-3.07-.05-3.71s.15-2.78,2.06-.24a28.75,28.75,0,0,1,4,8.89,30.16,30.16,0,0,1,.24,15.56C47.1,88.74,42.6,93,39.28,94.54c-1.75.8-4.28-.89-5.69-3.31A7.07,7.07,0,0,1,34.72,82.46Z"/><path class="cls-5" d="M48.9,62.3A28.09,28.09,0,0,0,45,53.68a4.48,4.48,0,0,0-.51-.59.51.51,0,0,0,0,.13,10.74,10.74,0,0,1,.31,2.06c.11,1.59-.18,2.13-.45,2.41a3.66,3.66,0,0,0-.26,2.14,4.37,4.37,0,0,1-.4,2.76,1.88,1.88,0,0,0,0,.64,2.65,2.65,0,0,1-.5,2.11c-.24.29-.24.46-.2,1a6.14,6.14,0,0,1,0,1.14A2.51,2.51,0,0,1,42.1,69c-.34.33-.33.35-.29.52.44,1.63-.28,2.26-1.13,3-.33.29-.39.56-.47,1.16,0,.25-.08.54-.16.86,0,.11-.06.23-.08.33a4.7,4.7,0,0,1-1.11,2.21,3.4,3.4,0,0,0-.54,1.21v0C40.73,79,44.83,81,46.81,84a47.69,47.69,0,0,0,2.33-6.57A29.54,29.54,0,0,0,48.9,62.3Z"/><path class="cls-4" d="M49.24,69.78c-.17,6.15-3.06,12.08-3.61,11.5-4.13-4.31.26-5.92.4-11.55s-.46-10.3.42-10.53S49.46,63.63,49.24,69.78Z"/><path class="cls-2" d="M36.49,48.27C27.78,55.78,14.83,65.87,18,90c2.11,9.76,7.16,14.48,11.63,14.71s16-.69,17.26-17.11c-.48-5.18-7.74-8.57-10.47-8.88-1.69-.19-.51-2.67-1-3.52s.37-2.12.08-3a4.15,4.15,0,0,1-.24-2.81A6.71,6.71,0,0,0,35.42,66a2.46,2.46,0,0,1,.17-2.35A4.17,4.17,0,0,0,36,60.45a3.58,3.58,0,0,1,.67-3c.67-1.11.24-1.46-.1-2.38a2.46,2.46,0,0,1,.39-2.32C37.33,52.32,38.62,46.44,36.49,48.27Z"/><path class="cls-5" d="M30.61,103.89c-.43,0-.88,0-1.31,0a9,9,0,0,1-6.08-3.48,24.18,24.18,0,0,1-4.75-10.55c-1.3-10.1.11-18.54,4.3-25.82,3.61-6.27,8.59-10.53,13-14.29l.7-.61a8.07,8.07,0,0,1-.12,1.35,8.92,8.92,0,0,1-.48,1.9,3.27,3.27,0,0,0-.48,3l.21.52c.23.53.28.64,0,1.19-.51.84-1.27,2.44-.71,3.67a3.55,3.55,0,0,1-.35,2.48,3.19,3.19,0,0,0-.25,3,5.75,5.75,0,0,1-.23,2.9,4.87,4.87,0,0,0,.24,3.32,2.07,2.07,0,0,1-.12.85,2.84,2.84,0,0,0,.11,2.29,3,3,0,0,1,0,1c-.07,1-.18,4.26,1.69,4.47,1.26.14,3.6-.47,5.66,1,1.7,1.17,3.78,3.1,4,5.61-.49,6.25-2.54,10.78-6.11,13.48a15.24,15.24,0,0,1-8.88,2.82Z"/><path class="cls-4" d="M30.29,80.24c-.93-1.14-.9-2.85-.9-4.37-.05-14.2,4.47-20.61,3.87-20.9-2-1.22-10.67,7.06-12.47,19.47-3.21,22.06,5.63,25.24,7.52,25.21,3.24-.06,5.83-4.45,5.79-9.81C34.06,84.7,32.16,82.52,30.29,80.24Z"/><path class="cls-2" d="M41.57,120.31c-2.34-1.51-5.21-2.12-7.27-8.29-1-2.85-5.67-6.51-4.56-8s7.15-7.43,10.34-4.12c1.87,3,3.1,3.76,4.63,4s7.62,1.5,8.36,3.56-4.46,3.5-6.67,6.23S43.71,121.68,41.57,120.31Z"/><path class="cls-5" d="M42.21,119.46a.45.45,0,0,1-.22-.1c-.41-.27-.84-.51-1.24-.75-2-1.17-4.15-2.38-5.83-7.38a10.69,10.69,0,0,0-2.22-3.48,23.33,23.33,0,0,1-1.59-2.14c-1-1.6,2.4-4.16,4.56-5.2,2.5-1.2,3.56-.26,3.94.14,1.85,2.91,2.69,3.31,4.66,3.67a33.17,33.17,0,0,1,4.39,1.14c2.85,1,3.35,1.84,3.43,2.08s.11.29-.39.77a14.76,14.76,0,0,1-2.16,1.54,15.76,15.76,0,0,0-3.94,3.14A16,16,0,0,0,43.5,117,7.42,7.42,0,0,1,42.21,119.46Z"/><path class="cls-4" d="M39.42,104.16c-2.23-1.76-3.8-3.38-6-1.43s-1.08,3.72.82,5.8a9.34,9.34,0,0,1,1.29,1.31,24.54,24.54,0,0,1,.92,2.75c1.29,3,4.59,5.82,5.58,4.29,2.38-3.69,1.85-4.21.56-7.24C42.23,108.69,42,106.21,39.42,104.16Z"/><path class="cls-2" d="M182.59,97.39s-13.2,9.71-15.8,22.51c-.37,1.8,4.36,2.36,5.76,1.65,3.3-1.66,8.85-5.92,12.53-7.75C188.24,112.24,187,97.89,182.59,97.39Z"/><path class="cls-3" d="M167.6,119.49c5.82-16.34,14.65-20.84,15.59-21.09a2.56,2.56,0,0,1,1.54,1.3c1.59,2.49,2.17,7.48,1.71,10.57-.2,1.4-.6,2.37-1.07,2.6-3.36,1.66-12.27,6.48-13.62,7.85C170.71,121.44,167.37,120.32,167.6,119.49Z"/><path class="cls-4" d="M172.84,115.93c-1.29-.85-.62-5.61,2.69-9.34s7.38-4.35,8.05-2.8-1.57,4.37-4.25,7.44S174.14,116.83,172.84,115.93Z"/><path class="cls-2" d="M215.11,122.64a38.71,38.71,0,0,1,.13,4.3c-.17.88.74,1.78.74,3.12a4.87,4.87,0,0,0,.67,2.61c.43,1,1.11,1.46.91,2.67s-.27,1.73.76,2.44,0,1.82.64,2.82,1.41,1.15,1.4,2.38,1.2,1.53,1.41,2.42a3.7,3.7,0,0,0,1.29,2.13,4.31,4.31,0,0,1,1.51,2.66c-.06.81,2,2.63,2.54,3s1.75,2.39-1.53,1.76a28.22,28.22,0,0,1-9.3-4.26,30.46,30.46,0,0,1-10.7-12.59c-4.86-11.26-4.05-18.16-2.36-21.92.9-2,4.12-2.51,6.91-1.59S215.33,118,215.11,122.64Z"/><path class="cls-5" d="M217.08,149.88a27.39,27.39,0,0,0,9,4.13,5.44,5.44,0,0,0,.81.1l-.1-.1a9.84,9.84,0,0,1-1.65-1.45c-1.16-1.22-1.28-1.88-1.25-2.32a3.88,3.88,0,0,0-1.23-2,4.42,4.42,0,0,1-1.54-2.56,1.65,1.65,0,0,0-.43-.53,2.88,2.88,0,0,1-1-2.11c0-.43-.11-.56-.5-1a5,5,0,0,1-.77-.94,2.85,2.85,0,0,1-.31-2c.05-.53,0-.54-.12-.64-1.46-1-1.29-2.08-1.09-3.31a1.69,1.69,0,0,0-.4-1.31,8.41,8.41,0,0,1-.45-.82c0-.13-.1-.23-.15-.34a5.23,5.23,0,0,1-.59-2.64,3.83,3.83,0,0,0-.37-1.41l0,0c-2.39,1.33-7.14,2.75-10.8,1.75a50.43,50.43,0,0,0,2.51,7.15A29.85,29.85,0,0,0,217.08,149.88Z"/><path class="cls-4" d="M211.76,144c-4-5.18-5.65-12.22-4.79-12.16,6.29.41,3.77,5,7.45,9.78s7.33,8.1,6.77,9S215.73,149.21,211.76,144Z"/><path class="cls-2" d="M236.73,152c2.08-12.73,5.89-30.78-12.94-48.2-8.31-6.42-15.64-6.48-19.46-3.29s-12.66,12.65-2.61,27.07c3.88,3.89,12.13,1.19,14.58-.62,1.52-1.12,2.22,1.8,3.23,2.11s1.11,2,1.95,2.51a4.27,4.27,0,0,1,2.1,2.13,6.87,6.87,0,0,0,2.07,3,2.53,2.53,0,0,1,1.45,2.05,4.35,4.35,0,0,0,1.82,2.91c.75.34,1.25,1.5,1.45,2.92s.79,1.38,1.68,1.89a2.58,2.58,0,0,1,1.25,2.18C233.31,149.33,236.22,155.13,236.73,152Z"/><path class="cls-5" d="M204,102c.36-.34.73-.67,1.1-1a9.4,9.4,0,0,1,7.33-1.73,23.39,23.39,0,0,1,11,5.07c7.89,7.3,12.43,15.29,13.9,24.43,1.26,7.86.06,15.12-1,21.52-.06.34-.12.69-.17,1a8,8,0,0,1-.81-1.21,10.27,10.27,0,0,1-.9-1.91,3.43,3.43,0,0,0-1.66-2.86c-.19-.11-.37-.19-.52-.27-.55-.26-.66-.31-.76-1-.16-1.08-.61-3-1.9-3.55a3.72,3.72,0,0,1-1.38-2.3,3.26,3.26,0,0,0-1.8-2.61A6.07,6.07,0,0,1,224.7,133a5,5,0,0,0-2.44-2.55,2,2,0,0,1-.47-.78,2.88,2.88,0,0,0-1.64-1.8,3.27,3.27,0,0,1-.65-.78c-.59-.84-2.72-3.64-4.41-2.39-1.12.83-2.63,3.1-5.28,3.49-2.19.31-5.19.29-7.11-1.57-3.81-5.5-5.18-10.76-4.07-15.67a18.42,18.42,0,0,1,5.39-9Z"/><path class="cls-4" d="M220.24,121.11c1.53.23,2.66,1.66,3.69,2.91,9.63,11.61,10.24,20.28,10.93,20.06,2.44-.48,4-13.83-2.91-25.38-12.25-20.52-21.65-16.45-23.18-15-2.61,2.49-1.78,8,1.86,12.41C214.14,120.31,217.17,120.66,220.24,121.11Z"/><path class="cls-2" d="M184,96.76c2.94-.53,5.71-2.19,11.56,1.31,2.71,1.62,9,1.06,9.15,3.14s-.86,11.49-5.7,11.18c-3.53-1-5.08-.75-6.52.2s-7.26,4.52-9.25,3.38,1.3-6.24,1.27-10.14S181.27,97.25,184,96.76Z"/><path class="cls-5" d="M184,97.93a.83.83,0,0,1,.26-.08c.51-.09,1-.21,1.52-.32,2.46-.58,5-1.17,9.76,1.66a10.4,10.4,0,0,0,4.18,1.18,25.42,25.42,0,0,1,2.75.56c1.9.55.83,5.22-.24,7.71-1.23,2.87-2.75,2.89-3.33,2.85-3.47-1-4.43-.68-6.3.51a37.18,37.18,0,0,1-4.37,2.37c-3,1.35-4,1-4.21.9s-.29-.17-.2-.93a17.57,17.57,0,0,1,.74-2.89,19,19,0,0,0,1.11-5.55,18.64,18.64,0,0,0-1-4.92A8.78,8.78,0,0,1,184,97.93Z"/><path class="cls-4" d="M196.61,108.38c3-.23,5.4-.09,5.85-3.31.41-3-1.62-3.87-4.59-4.14a10.12,10.12,0,0,1-1.94-.1,25.77,25.77,0,0,1-2.61-1.57c-3.1-1.51-7.69-1.3-7.47.69.54,4.82,1.33,4.86,4.43,6.37C191.25,106.79,193.11,108.65,196.61,108.38Z"/><path class="cls-2" d="M209.64,163.5s13.52,17.24,7.05,31.7c-2.75,6.12-3.92-8.06-9-18.1C203.45,168.61,206.15,157.55,209.64,163.5Z"/><path class="cls-6" d="M208.08,162.85s.06-.1.09-.14a3.65,3.65,0,0,1,1.09,1.29v0l0,0a50.78,50.78,0,0,1,5.9,10.35c2.3,5.49,4.36,13.56,1.1,20.84-.09.21-.19.39-.27.55-.72-1-1.63-4-2.46-6.78-1.11-3.68-2.3-8.35-4.4-12.22C205.85,170.69,206.82,164.91,208.08,162.85Z"/><path class="cls-2" d="M182.44,187.76s-1.72,18.26-14.14,22.4c-5.26,1.76,2.28-7,5-15.89C175.64,186.77,183.75,182.2,182.44,187.76Z"/><path class="cls-6" d="M181.85,186.41l.14,0a2.94,2.94,0,0,1-.08,1.41v0a39.57,39.57,0,0,1-2.4,9.57c-1.78,4.56-5.21,10.43-11.46,12.52l-.49.14c.12-1,1.34-3.32,2.43-5.39,1.47-2.78,3.45-6.18,4.41-9.69C175.91,189.46,179.88,186.79,181.85,186.41Z"/><path class="cls-2" d="M173.39,174.92c3.46,7,9.57,9.42,9.33,10.64-.2,1.41-4.52,4.33-6.14,4.27-1.3-.05-4.85-6.65-8.21-13C167.84,175.87,173,174.06,173.39,174.92Z"/><path class="cls-6" d="M175.94,187.59a104.12,104.12,0,0,1-6.47-11.29c-.18-.32,1-.81,1.26-.91.83-.32,1.83-.55,2-.35v0a22,22,0,0,0,2.11,3.43,28.92,28.92,0,0,0,5.43,5.32,10.52,10.52,0,0,1,1.59,1.4c.16.21.16.32.15.36v0c-.07.51-1,1.35-1.85,1.95a6.8,6.8,0,0,1-2.88,1.34C177.2,188.87,176.83,188.78,175.94,187.59Z"/><path class="cls-2" d="M158.42,162.16c7.84,9,15.75,11.8,16.2,13.4.61,1.82-2.48,5.61-4.2,5.64-1.36.05-8.44-7.77-15.29-15.38C154.07,164.65,157.46,161,158.42,162.16Z"/><path class="cls-5" d="M168.85,178.68c-2.84-2.58-7.54-7.76-12.94-13.76-.37-.41.39-1.35.55-1.53.54-.63,1.3-1.15,1.58-.9l0,0a51.44,51.44,0,0,0,4.26,4.35,64.32,64.32,0,0,0,8.9,6.64,23.76,23.76,0,0,1,2.58,1.79c.3.28.37.43.38.48v0a3.46,3.46,0,0,1-.92,2.56,4.27,4.27,0,0,1-2.36,1.84C170.86,180.19,170.42,180.09,168.85,178.68Z"/><path class="cls-2" d="M160.87,162.55a12.39,12.39,0,0,0,2.22,2.6c.75.53-4.84,3.78-5.59,4s-2-2.14-2.08-3S160.49,162,160.87,162.55Z"/><path class="cls-2" d="M196.09,154.78c6.77,6.19,14.23,5.85,14.52,7.34.43,1.67-2.8,7.09-4.52,7.83-1.38.59-8.06-5.08-14.41-10.55C190.7,158.58,195.28,154,196.09,154.78Z"/><path class="cls-6" d="M204.42,167.75c-2.66-1.63-6.95-5.28-11.83-9.48-.33-.28.71-1.42.92-1.64.73-.79,1.66-1.53,1.92-1.38l0,0a23.68,23.68,0,0,0,3.74,2.8,31.11,31.11,0,0,0,8.06,3.31,11.45,11.45,0,0,1,2.28.77c.27.16.32.29.33.34v0c.16.61-.44,2-1.07,3.11a8.11,8.11,0,0,1-2.42,2.92C206.31,168.57,205.88,168.64,204.42,167.75Z"/><path class="cls-2" d="M172.09,152.28c13.19,3.32,22.37.44,23.85,1.7,1.76,1.37,1.43,7.37-.14,8.65-1.22,1-13-1.67-24.33-4.34C169.73,157.9,170.45,151.85,172.09,152.28Z"/><path class="cls-5" d="M192.68,161.24c-4.34-.53-12.11-2.3-21.08-4.4-.61-.14-.53-1.62-.5-1.92.08-1,.43-2.08.86-2h0a54.88,54.88,0,0,0,6.82,1.26,68,68,0,0,0,12.63.22,22.43,22.43,0,0,1,3.57-.07,1.45,1.45,0,0,1,.67.19l0,0c.66.51.87,2,.85,3.21,0,1.61-.43,3.1-1,3.53C195.53,161.31,195.06,161.53,192.68,161.24Z"/><path class="cls-2" d="M171.22,150.64a13.64,13.64,0,0,0,3.67,1.36c1,.08-2.59,7-3.18,7.77s-3.15-1-3.74-1.82S170.52,150.28,171.22,150.64Z"/><path class="cls-2" d="M199,171.51s6.94,19.68-3,30.36c-4.21,4.53-1.12-8.4-2.66-18.94C192,174,197.6,165.1,199,171.51Z"/><path class="cls-6" d="M197.76,170.43l.12-.09a3.57,3.57,0,0,1,.59,1.49v0A48.7,48.7,0,0,1,200.69,183c.44,5.61-.09,13.43-5.09,18.81l-.41.39c-.35-1.09-.27-4.1-.2-6.79.09-3.63.4-8.15-.33-12.26C193.5,176.64,196.05,171.84,197.76,170.43Z"/><path class="cls-2" d="M185.34,162.79c6.15,6,13.15,6,13.38,7.38.35,1.59-2.85,6.56-4.48,7.18-1.32.51-7.4-5-13.18-10.38C180.16,166.17,184.59,162,185.34,162.79Z"/><path class="cls-6" d="M192.74,175.23c-2.44-1.62-6.35-5.18-10.79-9.29-.3-.27.7-1.3.91-1.51.71-.71,1.6-1.37,1.84-1.22l0,0a22.88,22.88,0,0,0,3.42,2.75,29.07,29.07,0,0,0,7.46,3.38,10.47,10.47,0,0,1,2.11.8c.25.16.29.28.3.33v0c.13.58-.48,1.87-1.09,2.88a7.54,7.54,0,0,1-2.37,2.66C194.48,176.07,194.08,176.12,192.74,175.23Z"/><path class="cls-2" d="M163.66,157.61c11.94,4.63,20.79,3,22,4.37,1.5,1.48.56,7-1,8-1.24.81-11.88-3.07-22.2-6.88C160.88,162.56,162.19,157,163.66,157.61Z"/><path class="cls-5" d="M181.9,168.36c-4-1-11-3.56-19.16-6.57-.56-.19-.33-1.56-.27-1.84.18-.94.62-1.89,1-1.79h0a52.85,52.85,0,0,0,6.22,2,63.1,63.1,0,0,0,11.73,1.67,22.41,22.41,0,0,1,3.33.36,1.36,1.36,0,0,1,.61.26l0,0c.56.55.6,2,.45,3.09-.19,1.5-.72,2.83-1.26,3.18C184.55,168.76,184.09,168.91,181.9,168.36Z"/><path class="cls-2" d="M164.54,156.27a12.45,12.45,0,0,0,3.34,1.54c1,.16-2.89,6.38-3.49,7s-2.88-1.21-3.38-2S163.9,155.87,164.54,156.27Z"/><path class="cls-2" d="M32,163.5s-13.52,17.24-7,31.7c2.75,6.12,3.92-8.06,9-18.1C38.15,168.61,35.45,157.55,32,163.5Z"/><path class="cls-6" d="M33.52,162.85l-.09-.14A3.65,3.65,0,0,0,32.34,164v0l0,0a50.78,50.78,0,0,0-5.9,10.35C24.1,179.89,22,188,25.3,195.24c.09.21.19.39.27.55.72-1,1.63-4,2.46-6.78,1.11-3.68,2.3-8.35,4.4-12.22C35.75,170.69,34.78,164.91,33.52,162.85Z"/><path class="cls-2" d="M59.16,187.76S60.88,206,73.3,210.16c5.26,1.76-2.28-7-5-15.89C66,186.77,57.85,182.2,59.16,187.76Z"/><path class="cls-6" d="M59.75,186.41l-.14,0a3.08,3.08,0,0,0,.08,1.41v0a40.14,40.14,0,0,0,2.4,9.57c1.78,4.56,5.21,10.43,11.46,12.52l.49.14c-.12-1-1.34-3.32-2.43-5.39-1.47-2.78-3.45-6.18-4.41-9.69C65.69,189.46,61.72,186.79,59.75,186.41Z"/><path class="cls-2" d="M68.21,174.92c-3.46,7-9.57,9.42-9.33,10.64.2,1.41,4.52,4.33,6.14,4.27,1.3-.05,4.85-6.65,8.21-13C73.76,175.87,68.62,174.06,68.21,174.92Z"/><path class="cls-6" d="M65.66,187.59a105.54,105.54,0,0,0,6.48-11.29c.17-.32-1-.81-1.27-.91-.83-.32-1.83-.55-2-.35v0a22,22,0,0,1-2.11,3.43,28.92,28.92,0,0,1-5.43,5.32,10.52,10.52,0,0,0-1.59,1.4c-.16.21-.16.32-.15.36v0c.07.51,1,1.35,1.85,1.95a6.8,6.8,0,0,0,2.88,1.34C64.41,188.87,64.77,188.78,65.66,187.59Z"/><path class="cls-2" d="M83.18,162.16c-7.84,9-15.75,11.8-16.2,13.4-.61,1.82,2.48,5.61,4.2,5.64,1.36.05,8.44-7.77,15.29-15.38C87.53,164.65,84.14,161,83.18,162.16Z"/><path class="cls-5" d="M72.75,178.68c2.84-2.58,7.54-7.76,12.94-13.76.37-.41-.39-1.35-.55-1.53-.54-.63-1.3-1.15-1.58-.9l0,0a51.44,51.44,0,0,1-4.26,4.35,64.93,64.93,0,0,1-8.9,6.64,22.78,22.78,0,0,0-2.58,1.79,1.31,1.31,0,0,0-.39.48v0c-.23.68.32,1.77.91,2.56a4.3,4.3,0,0,0,2.36,1.84C70.74,180.19,71.18,180.09,72.75,178.68Z"/><path class="cls-2" d="M80.73,162.55a12.39,12.39,0,0,1-2.22,2.6c-.75.53,4.84,3.78,5.59,4s2-2.14,2.08-3S81.11,162,80.73,162.55Z"/><path class="cls-2" d="M45.51,154.78C38.74,161,31.28,160.63,31,162.12c-.43,1.67,2.8,7.09,4.52,7.83,1.38.59,8.06-5.08,14.42-10.55C50.91,158.58,46.32,154,45.51,154.78Z"/><path class="cls-6" d="M37.18,167.75c2.66-1.63,7-5.28,11.83-9.48.33-.28-.71-1.42-.92-1.64-.73-.79-1.66-1.53-1.92-1.38l0,0a23.68,23.68,0,0,1-3.74,2.8,31.11,31.11,0,0,1-8.06,3.31,11.45,11.45,0,0,0-2.28.77c-.27.16-.32.29-.33.34v0c-.16.61.44,2,1.07,3.11a8.11,8.11,0,0,0,2.42,2.92C35.29,168.57,35.72,168.64,37.18,167.75Z"/><path class="cls-2" d="M69.51,152.28c-13.19,3.32-22.37.44-23.85,1.7-1.76,1.37-1.43,7.37.14,8.65,1.22,1,13-1.67,24.33-4.34C71.87,157.9,71.15,151.85,69.51,152.28Z"/><path class="cls-5" d="M48.92,161.24c4.34-.53,12.11-2.3,21.08-4.4.61-.14.53-1.62.5-1.92-.08-1-.43-2.08-.86-2h0a54.88,54.88,0,0,1-6.82,1.26,68,68,0,0,1-12.63.22,22.43,22.43,0,0,0-3.57-.07,1.45,1.45,0,0,0-.67.19l0,0c-.66.51-.87,2-.85,3.21,0,1.61.43,3.1,1,3.53C46.07,161.31,46.54,161.53,48.92,161.24Z"/><path class="cls-2" d="M70.38,150.64A13.64,13.64,0,0,1,66.71,152c-1,.08,2.59,7,3.18,7.77s3.15-1,3.74-1.82S71.08,150.28,70.38,150.64Z"/><path class="cls-2" d="M42.64,171.51s-6.94,19.68,3,30.36c4.21,4.53,1.12-8.4,2.66-18.94C49.61,174,44,165.1,42.64,171.51Z"/><path class="cls-6" d="M43.84,170.43l-.12-.09a3.57,3.57,0,0,0-.59,1.49v0A48.7,48.7,0,0,0,40.91,183c-.44,5.61.09,13.43,5.1,18.81.14.15.28.28.4.39.35-1.09.27-4.1.2-6.79-.09-3.63-.4-8.15.33-12.26C48.1,176.64,45.55,171.84,43.84,170.43Z"/><path class="cls-2" d="M56.26,162.79c-6.15,6-13.15,6-13.37,7.38-.36,1.59,2.84,6.56,4.47,7.18,1.32.51,7.4-5,13.18-10.38C61.44,166.17,57,162,56.26,162.79Z"/><path class="cls-6" d="M48.86,175.23c2.44-1.62,6.35-5.18,10.79-9.29.3-.27-.7-1.3-.91-1.51-.71-.71-1.6-1.37-1.84-1.22l0,0A22.88,22.88,0,0,1,53.46,166,29.18,29.18,0,0,1,46,169.36a10.37,10.37,0,0,0-2.12.8c-.25.16-.29.28-.3.33v0c-.13.58.48,1.87,1.09,2.88a7.54,7.54,0,0,0,2.37,2.66C47.12,176.07,47.52,176.12,48.86,175.23Z"/><path class="cls-2" d="M77.94,157.61c-11.94,4.63-20.79,3-22,4.37-1.5,1.48-.56,7,1,8,1.24.81,11.88-3.07,22.2-6.88C80.72,162.56,79.41,157,77.94,157.61Z"/><path class="cls-5" d="M59.7,168.36c4-1,11-3.56,19.16-6.57.56-.19.33-1.56.27-1.84-.18-.94-.62-1.89-1-1.79h0a52.85,52.85,0,0,1-6.22,2,63.1,63.1,0,0,1-11.73,1.67,22.41,22.41,0,0,0-3.33.36,1.36,1.36,0,0,0-.61.26l0,0c-.56.55-.6,2-.45,3.09.19,1.5.72,2.83,1.26,3.18C57.05,168.76,57.51,168.91,59.7,168.36Z"/><path class="cls-2" d="M77.06,156.27a12.45,12.45,0,0,1-3.34,1.54c-1,.16,2.89,6.38,3.49,7s2.88-1.21,3.38-2S77.7,155.87,77.06,156.27Z"/><path class="cls-2" d="M92.25,98.26C90.43,95,89.62,81.65,85.3,77c0-.46,9.27-3,10.72-2,0,0-4.2,12.6,3.2,20.17a2.57,2.57,0,0,1,2.6.89c.37.92-1.86,2.78-5,4.17s-5.92,1.76-6.28.84C90.35,100.53,90.92,99.22,92.25,98.26Z"/><path class="cls-4" d="M101.08,96.15c0,.23-.67,1.32-3.13,2.69h0l-.24.13-.31.17h0c-.32.16-.64.32-1,.46C93,101.12,91,101,90.79,100.75a3,3,0,0,1,1.49-2.17l.41-.28-.25-.45a27.59,27.59,0,0,1-1.68-6.26,66.94,66.94,0,0,0-3.05-11.25l.6.09a17.41,17.41,0,0,0,6.09-.37c-.08.89-.14,1.8-.19,2.66-.26,5.12,1.25,9.52,4.38,12.73l.19.19.25,0A2.24,2.24,0,0,1,101.08,96.15Z"/><path class="cls-5" d="M101.08,96.15c0,.23-.67,1.32-3.13,2.69h0l-.09.05h0c-.31.16-.63.32-1,.46-3.38,1.51-5.41,1.42-5.6,1.14s.24-1.28,1.49-2.17l.41-.29-.25-.44a27.59,27.59,0,0,1-1.68-6.26,69.34,69.34,0,0,0-2.92-10.92,17,17,0,0,0,6.1-.37c-.08.89-.15,1.8-.19,2.66-.27,5.13,1.24,9.53,4.38,12.74l.18.19.26,0A2.25,2.25,0,0,1,101.08,96.15Z"/><path class="cls-4" d="M101.67,57.65c3.41,7.13.7,15.84-6,19.45a13.13,13.13,0,0,1-15.13-2,14.59,14.59,0,0,1-3.27-4.43c-3.41-7.14-.69-15.85,6-19.45a13.13,13.13,0,0,1,15.57,2.38A14.68,14.68,0,0,1,101.67,57.65Z"/><path class="cls-5" d="M101.67,57.65c3.41,7.13.7,15.84-6,19.45a13.13,13.13,0,0,1-15.13-2,14.53,14.53,0,0,1-2.83-4c-3.41-7.13-.7-15.84,6-19.45a13.13,13.13,0,0,1,15.14,2A14.66,14.66,0,0,1,101.67,57.65Z"/><ellipse class="cls-2" cx="89.49" cy="65.09" rx="12.58" ry="13.31"/><path class="cls-7" d="M95.06,76.59a13,13,0,0,0,5.18-17.05,11.92,11.92,0,0,0-10.19-6.87,11.35,11.35,0,0,0-5.93,1.4,13,13,0,0,0-5.18,17,12.44,12.44,0,0,0,4,4.78A11.39,11.39,0,0,0,95.06,76.59Z"/><path class="cls-8" d="M94.18,76.14a12.82,12.82,0,0,0,5.09-16.77,11.77,11.77,0,0,0-9.22-6.69,11.43,11.43,0,0,0-5.93,1.39,13,13,0,0,0-5.18,17.05,12.44,12.44,0,0,0,4,4.78A11.22,11.22,0,0,0,94.18,76.14Z"/><path class="cls-9" d="M93,72.35A7.89,7.89,0,0,0,96.13,62a7.08,7.08,0,0,0-9.78-3.32A7.89,7.89,0,0,0,83.22,69,7.06,7.06,0,0,0,93,72.35Z"/><path class="cls-8" d="M86.43,71.33a2.48,2.48,0,0,0,1-3.25,2.22,2.22,0,0,0-3.07-1,2.49,2.49,0,0,0-1,3.25A2.22,2.22,0,0,0,86.43,71.33Z"/><path class="cls-8" d="M92.14,63.64a1.38,1.38,0,0,0,.55-1.81A1.26,1.26,0,0,0,91,61.24a1.4,1.4,0,0,0-.55,1.82A1.25,1.25,0,0,0,92.14,63.64Z"/><path class="cls-2" d="M145.48,89.84c.85-3.65-2.08-16.7.76-22.51-.13-.44-9.7,0-10.79,1.45,0,0,7.5,10.75,2.53,20.27a2.68,2.68,0,0,0-2.24,1.66c-.1,1,2.54,2.09,5.89,2.45s6.15-.14,6.25-1.13C147.93,91.42,147,90.33,145.48,89.84Z"/><path class="cls-4" d="M136.46,90.55c0,.24,1,1.06,3.73,1.6h0l.27.06.35.06h0l1,.14c3.66.4,5.57-.32,5.68-.65s-.58-1.14-2-1.61l-.47-.15.12-.5a27.93,27.93,0,0,0-.12-6.51,66.61,66.61,0,0,1-.2-11.7l-.56.27a17.6,17.6,0,0,1-5.92,1.53c.32.83.63,1.68.91,2.49a16.74,16.74,0,0,1-.66,13.53l-.12.23-.26,0A2.35,2.35,0,0,0,136.46,90.55Z"/><path class="cls-5" d="M136.46,90.55c0,.24,1,1.06,3.73,1.6h0l.1,0h0l1,.14c3.66.4,5.57-.32,5.67-.65s-.58-1.14-2-1.61l-.47-.15.12-.5a28.51,28.51,0,0,0-.12-6.51,70.53,70.53,0,0,1-.25-11.34,17.38,17.38,0,0,1-5.92,1.54c.32.82.64,1.68.91,2.48a16.7,16.7,0,0,1-.66,13.53l-.12.24-.26,0A2.32,2.32,0,0,0,136.46,90.55Z"/><path class="cls-4" d="M125.24,53.91C124,61.8,129,69.28,136.41,70.64a13.39,13.39,0,0,0,13.91-6.56,14.79,14.79,0,0,0,1.9-5.25C153.5,51,148.5,43.46,141.05,42.1a13.46,13.46,0,0,0-14.22,7.11A14.83,14.83,0,0,0,125.24,53.91Z"/><path class="cls-5" d="M125.24,53.91C124,61.8,129,69.28,136.41,70.64a13.39,13.39,0,0,0,13.91-6.56,15,15,0,0,0,1.6-4.72c1.28-7.88-3.72-15.37-11.17-16.73a13.41,13.41,0,0,0-13.92,6.58A14.83,14.83,0,0,0,125.24,53.91Z"/><ellipse class="cls-2" cx="138.94" cy="57.27" rx="12.58" ry="13.31"/><path class="cls-7" d="M136.8,70c-6.51-1.24-10.84-7.82-9.67-14.7A12.46,12.46,0,0,1,135,45.57a11.26,11.26,0,0,1,6.06-.51c6.51,1.24,10.84,7.82,9.67,14.7a12.94,12.94,0,0,1-2.55,5.82A11.62,11.62,0,0,1,136.8,70Z"/><path class="cls-8" d="M137.52,69.28c-6.4-1.22-10.66-7.69-9.51-14.46a12.35,12.35,0,0,1,7-9.26,11.33,11.33,0,0,1,6.05-.5c6.51,1.23,10.84,7.81,9.67,14.7a12.88,12.88,0,0,1-2.55,5.82A11.4,11.4,0,0,1,137.52,69.28Z"/><path class="cls-9" d="M137.61,65.29a7.64,7.64,0,0,1-5.86-8.91,7.29,7.29,0,0,1,8.42-6.19A7.64,7.64,0,0,1,146,59.1,7.29,7.29,0,0,1,137.61,65.29Z"/><path class="cls-8" d="M133.58,63.15a2.44,2.44,0,0,1-1.87-2.85,2.33,2.33,0,0,1,2.69-2,2.44,2.44,0,0,1,1.87,2.85A2.33,2.33,0,0,1,133.58,63.15Z"/><path class="cls-8" d="M140.18,56.22a1.34,1.34,0,0,1-1-1.57,1.28,1.28,0,0,1,1.48-1.09,1.35,1.35,0,0,1,1,1.57A1.29,1.29,0,0,1,140.18,56.22Z"/><path class="cls-10" d="M65.52,145.44a19.31,19.31,0,0,0,2.36,6.26c5.8,9.93,15.63,16.75,26.19,20.11s21.84,3.47,32.8,2.1c11.12-1.4,22.18-4.35,32-10s18.43-14.13,23.29-24.8c2.73-6,4.08-13.6.35-18.93-3.3-4.71-7.24-6.85-11.86-10.08-2.94-2-5.29-4.89-7.76-7.54-6.82-7.31-17-12.62-26.18-16s-19.48-3.78-28.5,0C100.8,89.69,94.56,95.45,89.51,102c-3.27,4.25-8,9.31-9.9,14.43-.89,2.41-1.57,4.94-3,7.08A25,25,0,0,1,71,130.24,15.68,15.68,0,0,0,65.52,145.44Z"/><path class="cls-4" d="M81.27,119.7c-1.75-1.32-.7-3.63.08-5.75,1.66-4.5,7.38-9.82,10.27-13.57a46,46,0,0,1,18-13.43c7.94-3.32,17.56-3,25.63-.08s17.08,6.5,23.08,12.93c2.18,2.33,8.29,6,6.26,7.86-5.15,4.7-13.34,12-28.75,23.84-3.86,3-9.54,4-14.48,4.8C108.72,138.31,94.77,129.93,81.27,119.7Z"/><path class="cls-11" d="M95.06,128.52s27.38,23.34,54.37-8.6"/><path class="cls-12" d="M102,133.08s9.64,28.18,23.93,26.24,16.95-32.55,16.95-32.55S125.89,144.08,102,133.08Z"/><path class="cls-13" d="M108.27,136.38s2.81,4.15,4.12,5.07c3.53,2.47,18.67.52,22.34-3.54,1.21-1.34,3.46-6.43,3.46-6.43S126.72,140.73,108.27,136.38Z"/><path class="cls-14" d="M133.73,146.12c6.51,1.83-2.74,11.24-6.28,12-1.4.31-7.22,2.22-12.93-4.87C113.05,151.44,119.34,142.07,133.73,146.12Z"/><path class="cls-15" d="M145.93,116.27a6.59,6.59,0,0,1,2.74,1.09,8.43,8.43,0,0,1,2.19,2.11,7.21,7.21,0,0,1,1.27,2.9c.05.27.09.53.12.8a7,7,0,0,1,0,.79l0,.4a2.7,2.7,0,0,1-.08.39,6.25,6.25,0,0,1-.21.74,21.41,21.41,0,0,0-1-2.69,15.83,15.83,0,0,0-1.35-2.29c-.53-.72-1.09-1.41-1.71-2.1Z"/><path class="cls-15" d="M98.91,124.62,97,126.75c-.62.7-1.19,1.39-1.71,2.11a14.82,14.82,0,0,0-1.35,2.29,19.46,19.46,0,0,0-1,2.69,5.9,5.9,0,0,1-.21-.75c0-.13-.06-.26-.09-.38l0-.4c0-.26,0-.53,0-.8s.07-.52.11-.79a7.5,7.5,0,0,1,1.27-2.9,8.84,8.84,0,0,1,2.2-2.12A6.6,6.6,0,0,1,98.91,124.62Z"/></svg>