<svg id="Layer_1" data-name="Layer 1" xmlns="http://www.w3.org/2000/svg" viewBox="0 0 256 256"><defs><style>.cls-1{opacity:0.3;}.cls-2{fill:#910000;}.cls-3{fill:#bf0000;}.cls-4{fill:#f33;}.cls-10,.cls-5{fill:#d80000;}.cls-6{fill:#ef0a0a;}.cls-7{fill:#b7b7b7;}.cls-8{fill:#fff;}.cls-9{fill:#191919;}.cls-10{stroke:#890300;stroke-width:2px;}.cls-10,.cls-11,.cls-12{stroke-miterlimit:10;}.cls-11{fill:none;stroke:#9e0000;}.cls-11,.cls-12{stroke-width:4px;}.cls-12{fill:#4f0000;stroke:#770101;}.cls-13{fill:#efefef;}.cls-14{fill:#ea2458;}.cls-15{fill:#9e0000;}</style></defs><ellipse class="cls-1" cx="125.56" cy="204.48" rx="124.96" ry="23.26"/><path class="cls-2" d="M27.3,117.51s16,6.57,28.2,1.38c1.72-.73-.62-5.48-2-6.37-3.35-2.09-10.22-4.74-13.93-7.1C36.35,103.4,25.08,113.08,27.3,117.51Z"/><path class="cls-3" d="M54.68,118.37c-17.11,4.29-26.12-1.28-26.89-2a3,3,0,0,1,.17-2.22c1.13-3,4.95-6.47,7.81-7.89,1.29-.64,2.34-.85,2.8-.55,3.4,2.16,12.72,7.61,14.67,8.06C54.47,114.31,55.51,118.09,54.68,118.37Z"/><path class="cls-4" d="M48.59,115.6c.06,1.71-4.32,3.92-9.41,3s-8-4.3-7.12-5.85,4.58-1.13,8.74-.45S48.56,113.85,48.59,115.6Z"/><path class="cls-2" d="M44.39,122s15.94,6.07,28.14,2.25c1.72-.54-.64-4.58-2-5.37-3.35-1.87-10.21-4.34-13.91-6.44C53.39,110.64,42.17,118.23,44.39,122Z"/><path class="cls-3" d="M71.71,123.79c-17.06,2.88-26.06-2.1-26.83-2.74a2.09,2.09,0,0,1,.16-1.84C46.17,116.8,50,114,52.82,113a4.09,4.09,0,0,1,2.8-.35c3.39,1.93,12.7,6.82,14.64,7.27C71.48,120.4,72.53,123.59,71.71,123.79Z"/><path class="cls-4" d="M65.63,121.25c.06,1.42-4.3,3.08-9.39,2.15s-8-3.89-7.11-5.15,4.57-.75,8.72,0S65.59,119.78,65.63,121.25Z"/><path class="cls-2" d="M20,75.25A38.21,38.21,0,0,1,22.7,71.7c.72-.57.58-2,1.46-3a5,5,0,0,0,1.2-2.58c.28-1.09.08-2,1-2.82s1.36-1.2,1-2.53,1.2-1.47,1.35-2.74-.37-2,.45-2.94,0-2.12.46-3A4.08,4.08,0,0,0,30,49.39a4.75,4.75,0,0,1,.55-3.26c.58-.61.17-3.55-.05-4.29s.17-3.22,2.38-.28a33.24,33.24,0,0,1,4.67,10.3,35,35,0,0,1,.28,18c-3.55,12.65-8.76,17.59-12.6,19.36-2,.93-5-1-6.6-3.83S16.7,78.86,20,75.25Z"/><path class="cls-5" d="M36.39,51.91a32.4,32.4,0,0,0-4.53-10,6.53,6.53,0,0,0-.58-.69.7.7,0,0,0,0,.16,12.52,12.52,0,0,1,.36,2.39c.12,1.83-.21,2.46-.52,2.79a4.25,4.25,0,0,0-.31,2.48,5.1,5.1,0,0,1-.45,3.2,1.91,1.91,0,0,0,0,.74,3.08,3.08,0,0,1-.57,2.44c-.29.34-.28.53-.24,1.15a6.31,6.31,0,0,1,0,1.31,3,3,0,0,1-1,1.8c-.39.38-.39.4-.34.6.52,1.89-.33,2.62-1.31,3.46-.38.34-.44.66-.54,1.35a9.18,9.18,0,0,1-.18,1c0,.14-.07.27-.1.38A5.41,5.41,0,0,1,24.76,69a3.73,3.73,0,0,0-.62,1.41l0,0c2.81.71,7.55,3.07,9.84,6.59a54.54,54.54,0,0,0,2.7-7.6A34.1,34.1,0,0,0,36.39,51.91Z"/><path class="cls-4" d="M36.78,60.56c-.2,7.13-3.54,14-4.19,13.32-4.78-5,.31-6.85.47-13.37s-.53-11.93.48-12.2S37,53.44,36.78,60.56Z"/><path class="cls-2" d="M22,35.66C11.93,44.36-3.07,56,.55,84,3,95.26,8.84,100.73,14,101s18.54-.8,20-19.82c-.55-6-9-9.93-12.13-10.29-2-.22-.59-3.08-1.2-4.07s.43-2.45.09-3.46a4.84,4.84,0,0,1-.28-3.26,7.8,7.8,0,0,0,.29-3.91A2.81,2.81,0,0,1,21,53.46a5,5,0,0,0,.46-3.7c-.38-.82,0-2.12.76-3.41s.28-1.7-.11-2.76a2.84,2.84,0,0,1,.45-2.69C23,40.35,24.48,33.53,22,35.66Z"/><path class="cls-5" d="M15.21,100.07c-.51,0-1,0-1.53,0-2.41-.12-4.91-1.55-7-4-2.49-2.9-4.39-7.13-5.5-12.22-1.51-11.69.12-21.48,5-29.91,4.18-7.25,9.94-12.19,15-16.55l.82-.7a9.27,9.27,0,0,1-.15,1.57,10.56,10.56,0,0,1-.55,2.19,3.79,3.79,0,0,0-.55,3.52c.08.23.17.43.24.61a1.09,1.09,0,0,1-.06,1.37c-.59,1-1.48,2.83-.82,4.26A4.08,4.08,0,0,1,19.67,53a3.64,3.64,0,0,0-.28,3.42,6.86,6.86,0,0,1-.28,3.37,5.7,5.7,0,0,0,.28,3.84,2.29,2.29,0,0,1-.14,1,3.3,3.3,0,0,0,.13,2.65,3.65,3.65,0,0,1,0,1.11c-.08,1.11-.22,4.93,1.95,5.18,1.46.16,4.17-.55,6.56,1.1,2,1.37,4.37,3.6,4.67,6.51-.57,7.23-2.95,12.49-7.08,15.61a17.66,17.66,0,0,1-10.28,3.26Z"/><path class="cls-4" d="M14.83,72.68c-1.08-1.31-1-3.29-1.05-5.06,0-16.45,5.18-23.87,4.49-24.2C16,42,5.92,51.59,3.82,66,.1,91.52,10.35,95.2,12.53,95.16c3.75-.07,6.76-5.15,6.72-11.35C19.2,77.84,17,75.32,14.83,72.68Z"/><path class="cls-2" d="M27.9,119.09c-2.71-1.74-6-2.46-8.43-9.6-1.1-3.31-6.56-7.54-5.28-9.29s8.29-8.6,12-4.77c2.18,3.42,3.59,4.35,5.38,4.66s8.82,1.74,9.67,4.12-5.17,4.05-7.72,7.21S30.38,120.69,27.9,119.09Z"/><path class="cls-5" d="M28.64,118.11a.58.58,0,0,1-.26-.12c-.48-.31-1-.59-1.44-.86-2.36-1.36-4.8-2.76-6.75-8.55a12.35,12.35,0,0,0-2.57-4,26,26,0,0,1-1.84-2.47c-1.17-1.86,2.77-4.82,5.29-6,2.89-1.39,4.11-.29,4.56.17,2.13,3.37,3.11,3.83,5.39,4.25a37.37,37.37,0,0,1,5.08,1.32c3.31,1.15,3.88,2.13,4,2.4,0,.12.12.34-.45.9a18.3,18.3,0,0,1-2.5,1.78,18.33,18.33,0,0,0-4.57,3.64,19,19,0,0,0-2.43,4.71C29.72,116.27,29.06,117.9,28.64,118.11Z"/><path class="cls-4" d="M25.4,100.39c-2.58-2-4.4-3.92-6.89-1.66-2.32,2.11-1.25,4.31,1,6.71A11.73,11.73,0,0,1,21,107c.54.87.59,2.07,1.07,3.19,1.5,3.51,5.32,6.73,6.46,5,2.76-4.27,2.15-4.88.65-8.39C28.66,105.63,28.4,102.76,25.4,100.39Z"/><path class="cls-2" d="M191.23,92.55s-15.29,11.24-18.3,26.06c-.43,2.09,5,2.74,6.67,1.93,3.82-1.94,10.25-6.87,14.51-9C197.77,109.75,196.36,93.13,191.23,92.55Z"/><path class="cls-3" d="M173.87,118.14c6.73-18.92,17-24.13,18-24.42a3,3,0,0,1,1.79,1.5c1.83,2.89,2.51,8.66,2,12.25-.24,1.62-.7,2.74-1.24,3-3.9,1.92-14.21,7.5-15.78,9.08C177.46,120.4,173.6,119.11,173.87,118.14Z"/><path class="cls-4" d="M179.93,114c-1.49-1-.72-6.49,3.12-10.82s8.55-5,9.33-3.24-1.83,5.06-4.93,8.62S181.45,115.06,179.93,114Z"/><path class="cls-2" d="M228.9,121.8a48.16,48.16,0,0,1,.14,5c-.19,1,.86,2.05.86,3.6a5.58,5.58,0,0,0,.78,3c.5,1.11,1.28,1.71,1,3.1s-.31,2,.88,2.83,0,2.11.74,3.27,1.63,1.32,1.63,2.75,1.39,1.77,1.63,2.8a4.24,4.24,0,0,0,1.49,2.47,5,5,0,0,1,1.75,3.08c-.07.94,2.25,3.05,2.94,3.48s2,2.76-1.77,2a32.33,32.33,0,0,1-10.77-4.93,35.35,35.35,0,0,1-12.4-14.58c-5.62-13-4.68-21-2.72-25.39,1-2.3,4.76-2.91,8-1.84S229.15,116.37,228.9,121.8Z"/><path class="cls-5" d="M231.17,153.34a31.4,31.4,0,0,0,10.46,4.78,6.44,6.44,0,0,0,.94.12.4.4,0,0,0-.12-.11,13,13,0,0,1-1.91-1.68c-1.34-1.42-1.48-2.18-1.45-2.69a4.41,4.41,0,0,0-1.42-2.27,5.26,5.26,0,0,1-1.79-3,1.88,1.88,0,0,0-.48-.62,3.26,3.26,0,0,1-1.18-2.43c0-.5-.12-.65-.58-1.12a6.31,6.31,0,0,1-.89-1.08,3.36,3.36,0,0,1-.36-2.26c.06-.62.05-.63-.13-.75-1.7-1.16-1.5-2.4-1.27-3.83a2,2,0,0,0-.46-1.51,7,7,0,0,1-.52-1l-.18-.39a6.1,6.1,0,0,1-.68-3.06,4.43,4.43,0,0,0-.43-1.63l0,0c-2.78,1.54-8.27,3.18-12.52,2a59.51,59.51,0,0,0,2.92,8.28A34.6,34.6,0,0,0,231.17,153.34Z"/><path class="cls-4" d="M225,146.53c-4.64-6-6.54-14.15-5.55-14.09,7.29.48,4.38,5.86,8.64,11.34s8.48,9.38,7.84,10.37S229.61,152.57,225,146.53Z"/><path class="cls-2" d="M253.93,155.82c2.41-14.75,6.83-35.66-15-55.82-9.63-7.44-18.12-7.51-22.54-3.81s-14.67,14.65-3,31.34c4.5,4.51,14.05,1.39,16.89-.71,1.76-1.29,2.57,2.08,3.74,2.44s1.29,2.34,2.26,2.91a4.88,4.88,0,0,1,2.43,2.47,7.86,7.86,0,0,0,2.4,3.42,2.9,2.9,0,0,1,1.67,2.38,5.09,5.09,0,0,0,2.12,3.37c.86.39,1.44,1.73,1.68,3.38s.91,1.61,2,2.19a3,3,0,0,1,1.44,2.53C250,152.71,253.34,159.42,253.93,155.82Z"/><path class="cls-5" d="M216.05,97.84c.41-.39.84-.77,1.27-1.14a11,11,0,0,1,8.49-2c4,.5,8.42,2.53,12.75,5.87,9.14,8.46,14.4,17.71,16.1,28.3,1.46,9.11.07,17.51-1.16,24.92-.07.4-.13.8-.2,1.2a10.09,10.09,0,0,1-.93-1.4,12.16,12.16,0,0,1-1-2.22,4,4,0,0,0-1.92-3.31c-.23-.13-.43-.23-.61-.31-.63-.3-.76-.36-.88-1.18-.18-1.24-.7-3.43-2.2-4.11a4.2,4.2,0,0,1-1.59-2.66,3.81,3.81,0,0,0-2.09-3,7.08,7.08,0,0,1-2-3,5.75,5.75,0,0,0-2.83-2.95,2.55,2.55,0,0,1-.54-.9,3.31,3.31,0,0,0-1.9-2.08A4,4,0,0,1,234,127c-.69-1-3.15-4.21-5.11-2.77-1.3,1-3,3.59-6.12,4-2.54.36-6,.34-8.23-1.82-4.41-6.36-6-12.46-4.71-18.14a21.37,21.37,0,0,1,6.24-10.44Z"/><path class="cls-4" d="M234.84,120c1.77.27,3.08,1.92,4.27,3.37,11.15,13.45,11.86,23.49,12.66,23.24,2.83-.57,4.61-16-3.37-29.4-14.2-23.77-25.08-19.06-26.85-17.38-3,2.89-2.06,9.33,2.15,14.38C227.77,119.09,231.28,119.49,234.84,120Z"/><path class="cls-2" d="M192.81,91.81c3.39-.61,6.6-2.53,13.39,1.53,3.13,1.87,10.46,1.22,10.59,3.63s-1,13.31-6.6,13c-4.09-1.17-5.89-.86-7.55.23s-8.41,5.23-10.72,3.92,1.51-7.23,1.47-11.75S189.69,92.38,192.81,91.81Z"/><path class="cls-5" d="M192.85,93.18a.71.71,0,0,1,.3-.1c.59-.1,1.19-.24,1.76-.37,2.85-.67,5.8-1.36,11.31,1.92,1.53.91,2.67,1,4.83,1.37a28.86,28.86,0,0,1,3.19.64c2.2.65,1,6-.28,8.93-1.43,3.33-3.18,3.35-3.86,3.31-4-1.15-5.13-.79-7.29.59a42.81,42.81,0,0,1-5.06,2.75c-3.48,1.55-4.62,1.18-4.88,1s-.33-.19-.23-1.07a20.27,20.27,0,0,1,.85-3.35,21.63,21.63,0,0,0,1.29-6.43,21.1,21.1,0,0,0-1.18-5.69C193.22,95.5,192.65,93.67,192.85,93.18Z"/><path class="cls-4" d="M207.47,105.27c3.5-.27,6.26-.1,6.77-3.83.48-3.48-1.88-4.48-5.31-4.79a11.59,11.59,0,0,1-2.25-.12c-1-.32-1.88-1.26-3-1.81-3.6-1.75-8.91-1.51-8.65.8.62,5.58,1.53,5.62,5.13,7.37C201.26,103.43,203.41,105.58,207.47,105.27Z"/><path class="cls-2" d="M222.56,169.12s15.66,20,8.16,36.71c-3.18,7.09-4.54-9.33-10.39-21C215.39,175,218.51,162.23,222.56,169.12Z"/><path class="cls-6" d="M220.75,168.37a.74.74,0,0,1,.11-.16,4.16,4.16,0,0,1,1.26,1.49v0l0,0a58.2,58.2,0,0,1,6.83,12c2.67,6.36,5.06,15.71,1.28,24.14a6.19,6.19,0,0,1-.31.63c-.83-1.12-1.89-4.67-2.85-7.84-1.28-4.27-2.66-9.68-5.09-14.16C218.17,177.45,219.29,170.75,220.75,168.37Z"/><path class="cls-2" d="M191.05,197.22s-2,21.15-16.37,25.94c-6.1,2,2.64-8.14,5.82-18.4C183.18,196.07,192.57,190.77,191.05,197.22Z"/><path class="cls-6" d="M190.37,195.65l.16,0a3.49,3.49,0,0,1-.09,1.63v.06a46.56,46.56,0,0,1-2.78,11.09c-2.06,5.28-6,12.08-13.28,14.49a4.21,4.21,0,0,1-.57.16c.15-1.15,1.56-3.83,2.82-6.23,1.7-3.23,4-7.16,5.11-11.22C183.49,199.19,188.09,196.09,190.37,195.65Z"/><path class="cls-2" d="M180.58,182.35c4,8.14,11.08,10.9,10.79,12.32-.22,1.63-5.23,5-7.11,4.94-1.5-.05-5.61-7.7-9.51-15.05C174.14,183.44,180.1,181.35,180.58,182.35Z"/><path class="cls-6" d="M183.53,197c-1.88-2.51-4.52-7.43-7.5-13.07-.21-.38,1.18-.95,1.46-1.06,1-.38,2.12-.64,2.3-.41,0,0,0,0,0,0a24.21,24.21,0,0,0,2.45,4,33.52,33.52,0,0,0,6.28,6.18,12.1,12.1,0,0,1,1.84,1.61c.18.24.18.38.17.42v0c-.08.6-1.16,1.56-2.15,2.26a7.71,7.71,0,0,1-3.34,1.55C185,198.5,184.55,198.39,183.53,197Z"/><path class="cls-2" d="M163.24,167.56c9.07,10.41,18.23,13.68,18.76,15.52.7,2.11-2.87,6.5-4.87,6.54-1.57.06-9.77-9-17.71-17.82C158.2,170.45,162.12,166.26,163.24,167.56Z"/><path class="cls-5" d="M175.32,186.69c-3.3-3-8.74-9-15-15.93-.43-.47.45-1.56.63-1.77.63-.73,1.51-1.33,1.83-1l0,0a60,60,0,0,0,4.93,5,73.7,73.7,0,0,0,10.31,7.69,24.84,24.84,0,0,1,3,2.08,1.41,1.41,0,0,1,.45.55v0c.26.79-.38,2-1.06,3-.91,1.22-2,2.11-2.74,2.12C177.64,188.45,177.13,188.33,175.32,186.69Z"/><path class="cls-2" d="M166.07,168a14.51,14.51,0,0,0,2.57,3c.87.61-5.61,4.37-6.47,4.68-.71.24-2.27-2.48-2.41-3.43S165.63,167.36,166.07,168Z"/><path class="cls-2" d="M206.87,159c7.83,7.18,16.48,6.78,16.81,8.51.5,1.94-3.24,8.21-5.24,9.07-1.6.68-9.33-5.88-16.69-12.22C200.61,163.42,205.92,158.12,206.87,159Z"/><path class="cls-6" d="M216.51,174c-3.08-1.89-8-6.11-13.7-11-.38-.33.83-1.65,1.07-1.91.84-.9,1.92-1.77,2.22-1.59l0,0a28,28,0,0,0,4.33,3.25,35.84,35.84,0,0,0,9.34,3.83,13.11,13.11,0,0,1,2.65.9c.3.18.36.33.37.39v0c.18.71-.51,2.33-1.23,3.6a9.53,9.53,0,0,1-2.81,3.39C218.7,175,218.2,175.07,216.51,174Z"/><path class="cls-2" d="M179.06,156.12c15.29,3.84,25.92.51,27.63,2,2,1.59,1.65,8.54-.16,10-1.41,1.19-15-1.94-28.18-5C176.33,162.63,177.17,155.63,179.06,156.12Z"/><path class="cls-5" d="M202.91,166.5c-5-.61-14-2.67-24.41-5.1-.71-.16-.61-1.88-.58-2.22.09-1.18.5-2.41,1-2.35H179a64.21,64.21,0,0,0,7.9,1.46,78.29,78.29,0,0,0,14.61.25,27.52,27.52,0,0,1,4.14-.08,1.42,1.42,0,0,1,.78.23h0c.76.59,1,2.31,1,3.72,0,1.87-.5,3.59-1.11,4.09C206.22,166.58,205.68,166.84,202.91,166.5Z"/><path class="cls-2" d="M178.06,154.22a15.55,15.55,0,0,0,4.25,1.57c1.2.1-3,8.15-3.68,9-.56.7-3.65-1.21-4.34-2.12S177.25,153.8,178.06,154.22Z"/><path class="cls-2" d="M210.18,178.4s8,22.78-3.47,35.16c-4.88,5.25-1.3-9.74-3.09-21.94C202.11,181.29,208.61,171,210.18,178.4Z"/><path class="cls-6" d="M208.8,177.14l.14-.1a4.16,4.16,0,0,1,.68,1.73v.06a56.49,56.49,0,0,1,2.56,12.84c.51,6.49-.1,15.55-5.9,21.78-.17.18-.33.33-.47.46-.4-1.27-.31-4.75-.23-7.87.1-4.2.46-9.44-.39-14.2C203.87,184.34,206.82,178.77,208.8,177.14Z"/><path class="cls-2" d="M194.41,168.3c7.12,7,15.24,6.91,15.49,8.54.41,1.84-3.29,7.6-5.18,8.32-1.52.58-8.57-5.83-15.27-12C188.42,172.21,193.55,167.43,194.41,168.3Z"/><path class="cls-6" d="M203,182.71c-2.82-1.88-7.35-6-12.5-10.76-.35-.32.82-1.52,1.06-1.75.82-.82,1.86-1.6,2.13-1.42l0,0a26.21,26.21,0,0,0,4,3.19,33.89,33.89,0,0,0,8.63,3.91,12.08,12.08,0,0,1,2.45.93c.28.19.34.33.35.39v0c.15.67-.56,2.16-1.27,3.33a8.68,8.68,0,0,1-2.74,3.08C205,183.67,204.54,183.74,203,182.71Z"/><path class="cls-2" d="M169.3,162.29c13.83,5.37,24.08,3.5,25.52,5.06,1.74,1.72.65,8.15-1.2,9.31-1.43.94-13.76-3.56-25.71-8C166.08,168,167.6,161.61,169.3,162.29Z"/><path class="cls-5" d="M190.43,174.74c-4.61-1.15-12.79-4.12-22.2-7.6-.64-.23-.37-1.81-.31-2.13.21-1.09.72-2.2,1.18-2.08l0,0a61,61,0,0,0,7.21,2.29,73.4,73.4,0,0,0,13.59,1.94,25.41,25.41,0,0,1,3.85.41,1.36,1.36,0,0,1,.7.3l0,0c.65.64.7,2.27.53,3.58-.22,1.74-.83,3.28-1.46,3.68C193.49,175.2,193,175.38,190.43,174.74Z"/><path class="cls-2" d="M170.32,160.74a14.38,14.38,0,0,0,3.87,1.78c1.12.19-3.35,7.39-4,8.15s-3.34-1.4-3.91-2.3S169.58,160.28,170.32,160.74Z"/><path class="cls-2" d="M16.76,169.12s-15.66,20-8.16,36.71c3.18,7.09,4.54-9.33,10.39-21C23.94,175,20.81,162.23,16.76,169.12Z"/><path class="cls-6" d="M18.57,168.37a.74.74,0,0,0-.11-.16,4.08,4.08,0,0,0-1.25,1.49l0,0,0,0a58.74,58.74,0,0,0-6.83,12c-2.67,6.36-5.06,15.71-1.28,24.14.11.24.22.45.31.63.83-1.12,1.9-4.67,2.85-7.84,1.28-4.27,2.66-9.68,5.1-14.16C21.15,177.45,20,170.75,18.57,168.37Z"/><path class="cls-2" d="M48.27,197.22s2,21.15,16.37,25.94c6.1,2-2.63-8.14-5.81-18.4C56.14,196.07,46.75,190.77,48.27,197.22Z"/><path class="cls-6" d="M49,195.65l-.16,0a3.41,3.41,0,0,0,.1,1.63v.06a47.14,47.14,0,0,0,2.78,11.09c2.06,5.28,6,12.08,13.28,14.49a4.21,4.21,0,0,0,.57.16c-.15-1.15-1.56-3.83-2.82-6.23-1.7-3.23-4-7.16-5.11-11.22C55.83,199.19,51.24,196.09,49,195.65Z"/><path class="cls-2" d="M58.75,182.35c-4,8.14-11.08,10.9-10.8,12.32.22,1.63,5.23,5,7.11,4.94,1.5-.05,5.62-7.7,9.51-15.05C65.18,183.44,59.22,181.35,58.75,182.35Z"/><path class="cls-6" d="M55.8,197c1.87-2.51,4.52-7.43,7.5-13.07.2-.38-1.19-.95-1.47-1.06-1-.38-2.11-.64-2.29-.41l0,0a24.85,24.85,0,0,1-2.44,4,34.13,34.13,0,0,1-6.28,6.18A11.17,11.17,0,0,0,49,194.26c-.19.24-.19.38-.18.42v0c.08.6,1.15,1.56,2.14,2.26a7.71,7.71,0,0,0,3.34,1.55C54.34,198.5,54.77,198.39,55.8,197Z"/><path class="cls-2" d="M76.09,167.56C67,178,57.85,181.24,57.32,183.08c-.7,2.11,2.87,6.5,4.87,6.54,1.57.06,9.78-9,17.71-17.82C81.12,170.45,77.2,166.26,76.09,167.56Z"/><path class="cls-5" d="M64,186.69c3.29-3,8.73-9,15-15.93.43-.47-.45-1.56-.63-1.77-.63-.73-1.51-1.33-1.84-1,0,0,0,0,0,0a60.12,60.12,0,0,1-4.94,5,73.72,73.72,0,0,1-10.3,7.69,26,26,0,0,0-3,2.08,1.53,1.53,0,0,0-.45.55v0c-.26.79.37,2,1.06,3,.9,1.22,2.05,2.11,2.73,2.12C61.68,188.45,62.19,188.33,64,186.69Z"/><path class="cls-2" d="M73.25,168a14.51,14.51,0,0,1-2.57,3c-.87.61,5.61,4.37,6.47,4.68.71.24,2.27-2.48,2.42-3.43S73.69,167.36,73.25,168Z"/><path class="cls-2" d="M32.45,159c-7.83,7.18-16.48,6.78-16.81,8.51-.5,1.94,3.25,8.21,5.24,9.07,1.6.68,9.33-5.88,16.69-12.22C38.71,163.42,33.4,158.12,32.45,159Z"/><path class="cls-6" d="M22.81,174c3.08-1.89,8.06-6.11,13.7-11,.39-.33-.82-1.65-1.07-1.91-.84-.9-1.92-1.77-2.22-1.59l0,0a28,28,0,0,1-4.33,3.25,35.7,35.7,0,0,1-9.34,3.83,12.74,12.74,0,0,0-2.64.9c-.31.18-.37.33-.38.39v0c-.18.71.51,2.33,1.24,3.6A9.43,9.43,0,0,0,20.55,175C20.63,175,21.12,175.07,22.81,174Z"/><path class="cls-2" d="M60.26,156.12c-15.29,3.84-25.91.51-27.63,2-2,1.59-1.65,8.54.17,10,1.4,1.19,15-1.94,28.17-5C63,162.63,62.15,155.63,60.26,156.12Z"/><path class="cls-5" d="M36.41,166.5c5-.61,14-2.67,24.41-5.1.71-.16.61-1.88.58-2.22-.09-1.18-.5-2.41-1-2.35h-.06a64.4,64.4,0,0,1-7.89,1.46,78.4,78.4,0,0,1-14.62.25,27.51,27.51,0,0,0-4.14-.08,1.46,1.46,0,0,0-.78.23h0c-.76.59-1,2.31-1,3.72,0,1.87.5,3.59,1.11,4.09C33.1,166.58,33.65,166.84,36.41,166.5Z"/><path class="cls-2" d="M61.26,154.22A15.41,15.41,0,0,1,57,155.79c-1.2.1,3,8.15,3.69,9,.55.7,3.65-1.21,4.33-2.12S62.08,153.8,61.26,154.22Z"/><path class="cls-2" d="M29.14,178.4s-8,22.78,3.48,35.16c4.88,5.25,1.3-9.74,3.08-21.94C37.21,181.29,30.71,171,29.14,178.4Z"/><path class="cls-6" d="M30.53,177.14a1,1,0,0,0-.15-.1,4.16,4.16,0,0,0-.68,1.73v.06a56.49,56.49,0,0,0-2.56,12.84c-.51,6.49.1,15.55,5.9,21.78.17.18.33.33.47.46.4-1.27.32-4.75.24-7.87-.11-4.2-.47-9.44.38-14.2C35.45,184.34,32.51,178.77,30.53,177.14Z"/><path class="cls-2" d="M44.91,168.3c-7.12,7-15.24,6.91-15.49,8.54-.41,1.84,3.29,7.6,5.19,8.32,1.51.58,8.56-5.83,15.26-12C50.9,172.21,45.77,167.43,44.91,168.3Z"/><path class="cls-6" d="M36.34,182.71c2.83-1.88,7.36-6,12.5-10.76.35-.32-.82-1.52-1.06-1.75-.81-.82-1.86-1.6-2.13-1.42,0,0,0,0,0,0a26.29,26.29,0,0,1-4,3.19A33.89,33.89,0,0,1,33,175.9a12.33,12.33,0,0,0-2.45.93c-.28.19-.33.33-.34.39v0c-.14.67.56,2.16,1.27,3.33a8.68,8.68,0,0,0,2.74,3.08C34.32,183.67,34.79,183.74,36.34,182.71Z"/><path class="cls-2" d="M70,162.29c-13.83,5.37-24.08,3.5-25.52,5.06-1.73,1.72-.65,8.15,1.2,9.31,1.44.94,13.76-3.56,25.71-8C73.24,168,71.72,161.61,70,162.29Z"/><path class="cls-5" d="M48.89,174.74c4.62-1.15,12.79-4.12,22.2-7.6.64-.23.37-1.81.31-2.13-.21-1.09-.72-2.2-1.17-2.08l0,0A61,61,0,0,1,63,165.24a73.32,73.32,0,0,1-13.58,1.94,25.42,25.42,0,0,0-3.86.41,1.42,1.42,0,0,0-.7.3l0,0c-.65.64-.7,2.27-.53,3.58.22,1.74.84,3.28,1.46,3.68C45.83,175.2,46.36,175.38,48.89,174.74Z"/><path class="cls-2" d="M69,160.74a14.38,14.38,0,0,1-3.87,1.78c-1.11.19,3.35,7.39,4.05,8.15s3.33-1.4,3.91-2.3S69.74,160.28,69,160.74Z"/><path class="cls-2" d="M86.6,93.56c-2.11-3.74-3-19.25-8-24.66,0-.54,10.73-3.53,12.4-2.26,0,0-4.85,14.59,3.71,23.35a3,3,0,0,1,3,1c.42,1.07-2.15,3.23-5.75,4.84s-6.85,2-7.27,1C84.39,96.18,85.05,94.66,86.6,93.56Z"/><path class="cls-4" d="M96.82,91.11c.05.27-.78,1.54-3.62,3.12h0l-.29.15c-.11.07-.24.13-.36.19h0l-1.12.53c-3.93,1.75-6.27,1.65-6.49,1.32s.27-1.48,1.72-2.51l.47-.33-.29-.52c-.73-1.3-1.29-4-2-7.25a76.25,76.25,0,0,0-3.53-13l.7.1a20.07,20.07,0,0,0,7.06-.43c-.09,1-.17,2.09-.22,3.08-.31,5.94,1.44,11,5.07,14.75l.21.22.3,0A2.64,2.64,0,0,1,96.82,91.11Z"/><path class="cls-5" d="M96.82,91.11c.05.27-.78,1.54-3.62,3.12h0l-.11.05h0l-1.12.53c-3.93,1.75-6.27,1.65-6.5,1.32a3.48,3.48,0,0,1,1.73-2.51l.47-.33-.28-.52c-.73-1.3-1.3-4.05-2-7.25A79.11,79.11,0,0,0,82,72.89a19.82,19.82,0,0,0,7.06-.42c-.09,1-.16,2.08-.22,3.08-.31,5.93,1.45,11,5.07,14.74l.22.22.29-.05A2.66,2.66,0,0,1,96.82,91.11Z"/><path class="cls-4" d="M97.5,46.51c4,8.27.81,18.36-7,22.53A15.19,15.19,0,0,1,73,66.77a16.48,16.48,0,0,1-3.79-5.14c-4-8.27-.81-18.36,7-22.53a15.21,15.21,0,0,1,18,2.77A16.85,16.85,0,0,1,97.5,46.51Z"/><path class="cls-5" d="M97.5,46.51c4,8.27.81,18.36-7,22.53A15.19,15.19,0,0,1,73,66.77a16.56,16.56,0,0,1-3.28-4.66c-4-8.26-.82-18.35,7-22.52a15.19,15.19,0,0,1,17.53,2.28A16.85,16.85,0,0,1,97.5,46.51Z"/><ellipse class="cls-2" cx="83.39" cy="55.14" rx="14.58" ry="15.41"/><path class="cls-7" d="M89.85,68.46c6.81-3.7,9.5-12.55,6-19.75a13.8,13.8,0,0,0-11.81-8,13.08,13.08,0,0,0-6.86,1.61c-6.81,3.7-9.5,12.54-6,19.74a14.27,14.27,0,0,0,4.69,5.54A13.21,13.21,0,0,0,89.85,68.46Z"/><path class="cls-8" d="M88.83,67.93c6.69-3.64,9.34-12.34,5.89-19.42A13.65,13.65,0,0,0,84,40.76a13.27,13.27,0,0,0-6.86,1.61c-6.81,3.7-9.5,12.55-6,19.75a14.24,14.24,0,0,0,4.69,5.53A13,13,0,0,0,88.83,67.93Z"/><path class="cls-9" d="M87.45,63.55a9.13,9.13,0,0,0,3.63-12,8.18,8.18,0,0,0-11.32-3.84,9.15,9.15,0,0,0-3.63,12A8.19,8.19,0,0,0,87.45,63.55Z"/><path class="cls-8" d="M79.85,62.36A2.87,2.87,0,0,0,81,58.6a2.56,2.56,0,0,0-3.55-1.2,2.85,2.85,0,0,0-1.14,3.75A2.57,2.57,0,0,0,79.85,62.36Z"/><path class="cls-8" d="M86.46,53.46a1.6,1.6,0,0,0,.64-2.1,1.45,1.45,0,0,0-2-.68,1.61,1.61,0,0,0-.63,2.11A1.43,1.43,0,0,0,86.46,53.46Z"/><path class="cls-2" d="M148.25,83.8c1-4.22-2.41-19.34.87-26.07-.14-.51-11.23,0-12.49,1.68,0,0,8.69,12.45,2.93,23.48a3.13,3.13,0,0,0-2.6,1.92c-.11,1.15,2.95,2.42,6.83,2.84s7.12-.17,7.23-1.31C151.08,85.63,150,84.37,148.25,83.8Z"/><path class="cls-4" d="M137.8,84.63c0,.27,1.16,1.22,4.32,1.85h0l.32.06.4.07h0c.4.07.81.12,1.22.17,4.24.46,6.45-.37,6.58-.75s-.68-1.33-2.35-1.86l-.54-.18.13-.58c.34-1.47.12-4.28-.14-7.54a78.86,78.86,0,0,1-.24-13.55c-.21.1-.42.21-.64.3A20.4,20.4,0,0,1,140,64.41c.37,1,.74,1.94,1.06,2.87,1.94,5.58,1.67,11-.77,15.67l-.14.28-.3,0A2.7,2.7,0,0,0,137.8,84.63Z"/><path class="cls-5" d="M137.8,84.63c0,.27,1.16,1.22,4.32,1.85h0l.12,0h0c.39.06.8.12,1.22.16,4.23.46,6.45-.36,6.57-.75s-.68-1.32-2.35-1.86l-.54-.17.14-.59c.34-1.46.11-4.27-.14-7.53a80.1,80.1,0,0,1-.28-13.14A20.21,20.21,0,0,1,140,64.41c.38,1,.74,2,1.06,2.88A19.38,19.38,0,0,1,140.33,83l-.15.27-.29,0A2.68,2.68,0,0,0,137.8,84.63Z"/><path class="cls-4" d="M124.8,42.19c-1.49,9.13,4.3,17.8,12.94,19.37A15.54,15.54,0,0,0,153.85,54a17.06,17.06,0,0,0,2.2-6.09c1.49-9.12-4.3-17.8-12.93-19.37a15.61,15.61,0,0,0-16.48,8.23A17.45,17.45,0,0,0,124.8,42.19Z"/><path class="cls-5" d="M124.8,42.19c-1.49,9.13,4.3,17.8,12.94,19.37A15.54,15.54,0,0,0,153.85,54a17.33,17.33,0,0,0,1.85-5.47c1.49-9.13-4.3-17.8-12.93-19.37a15.54,15.54,0,0,0-16.13,7.61A17.45,17.45,0,0,0,124.8,42.19Z"/><ellipse class="cls-2" cx="140.67" cy="46.08" rx="14.58" ry="15.42"/><path class="cls-7" d="M138.19,60.81c-7.54-1.43-12.55-9.05-11.2-17a14.47,14.47,0,0,1,9.09-11.26,13.15,13.15,0,0,1,7-.58c7.54,1.43,12.55,9.05,11.2,17a15,15,0,0,1-2.95,6.75A13.49,13.49,0,0,1,138.19,60.81Z"/><path class="cls-8" d="M139,60c-7.42-1.4-12.35-8.9-11-16.74a14.27,14.27,0,0,1,8.07-10.72,13.06,13.06,0,0,1,7-.59c7.54,1.43,12.56,9.06,11.2,17a14.9,14.9,0,0,1-2.95,6.74A13.17,13.17,0,0,1,139,60Z"/><path class="cls-9" d="M139.13,55.37a8.86,8.86,0,0,1-6.79-10.32,8.45,8.45,0,0,1,9.76-7.17,8.85,8.85,0,0,1,6.79,10.31A8.45,8.45,0,0,1,139.13,55.37Z"/><path class="cls-8" d="M134.46,52.89a2.83,2.83,0,0,1-2.17-3.3,2.71,2.71,0,0,1,3.12-2.3,2.85,2.85,0,0,1,2.17,3.31A2.7,2.7,0,0,1,134.46,52.89Z"/><path class="cls-8" d="M142.11,44.86a1.55,1.55,0,0,1-1.2-1.81,1.5,1.5,0,0,1,1.72-1.27,1.57,1.57,0,0,1,1.19,1.82A1.47,1.47,0,0,1,142.11,44.86Z"/><path class="cls-10" d="M55.63,148.2a22.33,22.33,0,0,0,2.74,7.25c6.71,11.5,18.1,19.4,30.33,23.29s25.3,4,38,2.43c12.88-1.61,25.69-5,37.1-11.57s21.35-16.36,27-28.72c3.16-6.93,4.72-15.75.4-21.93-3.82-5.45-8.38-7.93-13.73-11.67-3.41-2.38-6.13-5.67-9-8.74-7.89-8.46-19.7-14.61-30.32-18.51s-22.56-4.38-33,0C96.5,83.63,89.27,90.29,83.43,97.9c-3.8,4.92-9.3,10.79-11.48,16.71-1,2.79-1.82,5.72-3.41,8.21a29.18,29.18,0,0,1-6.62,7.77A18.16,18.16,0,0,0,55.63,148.2Z"/><path class="cls-4" d="M73.88,118.39c-2-1.54-.82-4.2.09-6.66,1.92-5.21,8.55-11.38,11.89-15.72C91,89.32,99.14,83.62,106.73,80.45c9.21-3.85,20.34-3.52,29.69-.09s19.78,7.53,26.73,15c2.52,2.7,9.6,7,7.25,9.1-6,5.44-15.45,13.86-33.3,27.61-4.47,3.45-11,4.66-16.77,5.57C105.66,139.94,89.52,130.23,73.88,118.39Z"/><path class="cls-11" d="M89.84,128.61s31.72,27,63-10"/><path class="cls-12" d="M97.94,133.88s11.16,32.65,27.71,30.39,19.63-37.7,19.63-37.7S125.56,146.62,97.94,133.88Z"/><path class="cls-13" d="M105.15,137.7s3.25,4.81,4.77,5.88c4.09,2.85,21.62.6,25.88-4.1,1.4-1.55,4-7.45,4-7.45S126.52,142.74,105.15,137.7Z"/><path class="cls-14" d="M134.64,149c7.53,2.11-3.18,13-7.27,13.92-1.63.36-8.36,2.57-15-5.64C110.68,155.15,118,144.3,134.64,149Z"/><path class="cls-15" d="M148.77,114.41a7.86,7.86,0,0,1,3.17,1.26,10,10,0,0,1,2.54,2.45,8.55,8.55,0,0,1,1.47,3.36c.06.31.1.62.13.92s0,.62,0,.93l0,.45c0,.15-.05.3-.09.45a8,8,0,0,1-.25.87,21.69,21.69,0,0,0-1.15-3.12,17.65,17.65,0,0,0-1.56-2.66c-.61-.83-1.26-1.63-2-2.43Z"/><path class="cls-15" d="M94.3,124.08l-2.23,2.48c-.71.8-1.37,1.6-2,2.43a17.07,17.07,0,0,0-1.56,2.65,23.11,23.11,0,0,0-1.15,3.13c-.1-.29-.18-.58-.25-.87l-.09-.45,0-.46c0-.3,0-.62,0-.92s.08-.61.13-.92a8.61,8.61,0,0,1,1.47-3.36,10,10,0,0,1,2.54-2.45A7.8,7.8,0,0,1,94.3,124.08Z"/></svg>